<svg width="600" height="600" viewBox="0 0 600 600" fill="none" xmlns="http://www.w3.org/2000/svg">
<path d="M38.1282 488.7L22.7869 462.005H30.9446L41.6896 480.786L52.4651 462.005H60.6228L45.2206 488.7V509.003H38.1282V488.7ZM59.4831 485.291C59.4831 478.675 61.9081 472.993 66.7581 468.245C71.5877 463.496 77.3915 461.122 84.1692 461.122C90.8658 461.122 96.6087 463.517 101.398 468.306C106.207 473.095 108.612 478.848 108.612 485.565C108.612 492.322 106.197 498.055 101.367 502.763C96.5174 507.491 90.6629 509.855 83.804 509.855C77.7364 509.855 72.2878 507.755 67.4582 503.554C62.1415 498.907 59.4831 492.819 59.4831 485.291ZM66.6363 485.382C66.6363 490.577 68.3815 494.849 71.8718 498.197C75.3419 501.545 79.3497 503.219 83.8953 503.219C88.8264 503.219 92.9864 501.515 96.3753 498.106C99.7642 494.656 101.459 490.455 101.459 485.504C101.459 480.492 99.7845 476.291 96.4362 472.902C93.1082 469.493 88.9888 467.788 84.0779 467.788C79.1874 467.788 75.0578 469.493 71.6892 472.902C68.3206 476.271 66.6363 480.431 66.6363 485.382ZM139.829 484.53H159.249V486.082C159.249 489.613 158.833 492.738 158.001 495.458C157.189 497.974 155.82 500.328 153.892 502.519C149.529 507.43 143.979 509.886 137.242 509.886C130.667 509.886 125.036 507.511 120.348 502.763C115.66 497.994 113.317 492.272 113.317 485.595C113.317 478.777 115.701 472.993 120.47 468.245C125.239 463.476 131.042 461.092 137.881 461.092C141.554 461.092 144.983 461.843 148.169 463.344C151.213 464.846 154.206 467.281 157.149 470.65L152.096 475.489C148.24 470.355 143.543 467.788 138.003 467.788C133.031 467.788 128.861 469.503 125.492 472.933C122.124 476.301 120.439 480.522 120.439 485.595C120.439 490.831 122.316 495.143 126.071 498.532C129.581 501.677 133.386 503.25 137.485 503.25C140.976 503.25 144.111 502.073 146.891 499.719C149.671 497.345 151.223 494.504 151.548 491.196H139.829V484.53ZM191.806 497.588H171.685L166.45 509.003H158.81L182.065 459.052L204.499 509.003H196.737L191.806 497.588ZM188.914 490.922L181.943 474.942L174.638 490.922H188.914ZM244.378 482.856L252.84 493.083L253.114 492.779C254.027 491.785 254.889 490.81 255.701 489.857C256.513 488.903 257.294 487.939 258.045 486.965L262.672 491.714C262.103 492.525 261.353 493.469 260.419 494.544C259.506 495.62 258.41 496.858 257.132 498.258L265.837 509.003H257.01L252.322 503.25C248.02 507.694 243.546 509.916 238.899 509.916C234.739 509.916 231.208 508.587 228.306 505.929C225.465 503.25 224.044 499.942 224.044 496.005C224.044 491.318 226.297 487.422 230.802 484.317L233.876 482.217C233.917 482.196 233.988 482.145 234.089 482.064C234.191 481.983 234.333 481.872 234.515 481.729C231.411 478.422 229.858 475.165 229.858 471.959C229.858 468.793 230.893 466.216 232.963 464.227C235.073 462.238 237.793 461.244 241.121 461.244C244.347 461.244 247.016 462.208 249.126 464.136C251.237 466.063 252.292 468.499 252.292 471.441C252.292 473.47 251.713 475.307 250.557 476.951C249.42 478.594 247.361 480.563 244.378 482.856ZM238.746 486.843L238.351 487.117C235.449 489.126 233.47 490.739 232.415 491.957C231.38 493.175 230.863 494.463 230.863 495.823C230.863 497.771 231.644 499.557 233.206 501.18C234.83 502.743 236.616 503.524 238.564 503.524C241.303 503.524 244.459 501.728 248.03 498.136L238.746 486.843ZM240.268 477.864L240.847 477.438C241.841 476.687 242.663 476.037 243.312 475.489C243.962 474.921 244.428 474.444 244.712 474.059C245.321 473.308 245.626 472.385 245.626 471.289C245.626 470.051 245.21 469.047 244.378 468.275C243.546 467.504 242.43 467.119 241.029 467.119C239.751 467.119 238.675 467.514 237.803 468.306C236.93 469.057 236.494 470.021 236.494 471.198C236.494 472.577 237.042 473.937 238.138 475.276L239.903 477.407C239.964 477.509 240.086 477.661 240.268 477.864ZM299.963 468.671V509.003H292.871V468.671H282.065V462.005H310.739V468.671H299.963ZM331.119 488.974L345.669 509.003H336.994L323.57 489.765H322.292V509.003H315.2V462.005H323.51C329.719 462.005 334.204 463.172 336.964 465.505C340.008 468.103 341.53 471.532 341.53 475.794C341.53 479.122 340.576 481.983 338.668 484.378C336.761 486.772 334.244 488.304 331.119 488.974ZM322.292 483.586H324.545C331.261 483.586 334.62 481.019 334.62 475.885C334.62 471.076 331.353 468.671 324.818 468.671H322.292V483.586ZM378.5 497.588H358.379L353.144 509.003H345.504L368.759 459.052L391.193 509.003H383.431L378.5 497.588ZM375.608 490.922L368.637 474.942L361.332 490.922H375.608ZM402.32 462.005V509.003H395.228V462.005H402.32ZM411.743 509.003V458.809L446.017 494.666V462.005H453.11V511.864L418.835 476.098V509.003H411.743ZM469.625 462.005V509.003H462.532V462.005H469.625ZM479.047 509.003V458.809L513.322 494.666V462.005H520.414V511.864L486.14 476.098V509.003H479.047ZM554.493 484.53H573.913V486.082C573.913 489.613 573.497 492.738 572.665 495.458C571.853 497.974 570.483 500.328 568.555 502.519C564.193 507.43 558.642 509.886 551.905 509.886C545.33 509.886 539.699 507.511 535.012 502.763C530.324 497.994 527.98 492.272 527.98 485.595C527.98 478.777 530.365 472.993 535.133 468.245C539.902 463.476 545.706 461.092 552.545 461.092C556.218 461.092 559.647 461.843 562.833 463.344C565.877 464.846 568.87 467.281 571.812 470.65L566.76 475.489C562.904 470.355 558.206 467.788 552.666 467.788C547.695 467.788 543.524 469.503 540.156 472.933C536.787 476.301 535.103 480.522 535.103 485.595C535.103 490.831 536.98 495.143 540.734 498.532C544.245 501.677 548.05 503.25 552.149 503.25C555.639 503.25 558.774 502.073 561.554 499.719C564.335 497.345 565.887 494.504 566.212 491.196H554.493V484.53Z" fill="black"/>
<path d="M338.492 325.547C344.932 340.122 353.556 359.697 357.656 369.047C361.757 378.397 365.462 386.407 365.89 386.847C366.318 387.287 375.848 367.545 387.068 342.976C405.06 303.577 407.558 298.644 408.238 301.176C408.662 302.755 413.522 329.922 419.038 361.547C424.554 393.172 429.319 420.059 429.626 421.297C430.175 423.506 430.02 423.547 421.095 423.547C412.486 423.547 411.979 423.428 411.5 421.297C411.222 420.059 410.076 413.197 408.953 406.047C404.062 374.897 402.739 366.64 401.594 360.105L400.377 353.162L383.475 390.355C374.178 410.81 366.31 427.547 365.989 427.547C365.668 427.547 358.041 410.888 349.04 390.527C340.039 370.166 332.545 353.637 332.387 353.795C332.229 353.952 329.607 368.249 326.56 385.564C323.513 402.88 320.727 418.509 320.369 420.297L319.718 423.547H310.843C304.407 423.547 301.969 423.203 301.972 422.297C301.975 421.61 303.745 412.047 305.906 401.047C308.067 390.047 313.251 363.497 317.426 342.047L317.977 339.215C325.228 301.963 325.896 298.531 326.28 298.563C326.328 298.567 326.372 298.625 326.424 298.679C326.621 298.881 332.051 310.972 338.492 325.547Z" fill="black"/>
<path d="M461.284 405.664C464.963 407.546 466.924 410.807 466.924 415.047C466.924 424.357 456.71 428.862 449.734 422.629C446.93 420.124 446.468 419.051 446.468 415.047C446.468 411.043 446.93 409.97 449.734 407.465C453.226 404.344 457.424 403.69 461.284 405.664Z" fill="black"/>
<path d="M282.568 407.947C285.209 410.588 285.968 412.172 285.968 415.047C285.968 420.221 280.7 425.547 275.584 425.547C270.458 425.547 266.021 421.361 265.278 415.825C264.763 411.98 265.028 411.287 268.24 408.075C273.105 403.21 277.789 403.168 282.568 407.947Z" fill="black"/>
<path fill-rule="evenodd" clip-rule="evenodd" d="M219.082 305.541C222.044 306.087 228.254 308.396 232.882 310.671C256.999 322.525 270.456 349.472 265.628 376.239C258.395 416.341 212.064 437.885 176.069 417.885C168.064 413.437 155.504 401.073 151.676 393.872C145.424 382.113 143.204 363.175 146.553 350.191C151.801 329.851 169.568 311.931 189.941 306.43C197.293 304.445 210.892 304.03 219.082 305.541ZM176.867 332.238C182.793 326.695 188.379 323.771 196.357 322.035C204.329 320.301 207.113 320.294 215.112 321.99C223.269 323.719 228.065 326.105 234.127 331.449C258.175 352.651 252.403 391.673 223.194 405.363C218.02 407.788 216.357 408.047 205.952 408.047C194.923 408.047 194.149 407.906 187.663 404.715C178.549 400.232 170.772 392.485 166.727 383.862C163.986 378.017 163.475 375.679 163.139 367.434C162.51 352.019 166.41 342.019 176.867 332.238Z" fill="black"/>
<path fill-rule="evenodd" clip-rule="evenodd" d="M313.634 76.5642C325.012 82.1402 331.361 92.5472 331.308 105.536C331.233 124.087 317.678 137.634 299.166 137.66C289.332 137.674 283.472 135.224 276.381 128.133C269.127 120.878 266.819 115.174 266.852 104.578C266.928 80.6292 291.682 65.8062 313.634 76.5642ZM293.738 87.9712C295.241 87.6402 296.92 87.2142 297.47 87.0252C301.742 85.5542 311.38 90.6822 314.568 96.1212C321.696 108.285 313.007 123.544 298.952 123.544C286.304 123.544 277.406 110.01 282.321 98.2462C283.989 94.2542 290.073 88.7792 293.738 87.9712Z" fill="black"/>
<path d="M280.561 149.109C295.754 166.622 299.502 170.427 300.512 169.359C301.439 168.379 321.057 145.701 336.623 127.617C337.37 126.75 343.257 133.236 347.449 139.544C359.785 158.106 363.207 181.755 356.928 205.047C355.914 208.807 355.112 209.476 343.743 216.047C337.085 219.895 331.179 223.222 330.618 223.439C330.057 223.657 331.204 221.857 333.167 219.439C343.893 206.232 348.475 185.792 344.494 168.91C342.965 162.425 338.782 152.142 337.332 151.3C336.603 150.878 329.469 158.828 302.891 189.679L299.312 193.833L280.483 172.072L261.654 150.312L259.857 152.678C258.869 153.979 256.803 158.869 255.265 163.544C252.898 170.741 252.478 173.654 252.522 182.544C252.597 197.883 256.095 208.197 265.073 219.556L269.337 224.949L264.903 222.391C262.465 220.984 256.523 217.653 251.699 214.988C243.304 210.351 242.868 209.939 241.505 205.349C234.875 183.025 238.541 157.421 251.024 138.857C254.593 133.548 259.945 127.544 261.108 127.544C261.518 127.544 270.272 137.248 280.561 149.109Z" fill="black"/>
<path fill-rule="evenodd" clip-rule="evenodd" d="M241.163 221.461C255.202 227.618 340.97 270.322 340.97 271.155C340.97 272.199 261.371 270.775 248.47 269.501C214.308 266.126 192.677 253.335 192.605 236.466C192.552 224.156 204.923 216.218 223.042 216.934C230.508 217.229 232.844 217.812 241.163 221.461ZM212.22 241.294C207.464 236.696 207.903 235.1 214.383 233.428C222.391 231.361 227.633 232.852 250.454 243.684C275.297 255.475 275.35 255.737 252.47 253.603C231.083 251.608 219.097 247.943 212.22 241.294Z" fill="black"/>
<path fill-rule="evenodd" clip-rule="evenodd" d="M390.97 218.602C396.247 219.957 401.726 224.145 403.967 228.538C409.346 239.081 402.876 252.041 388.661 259.2C381.581 262.765 356.862 271.508 353.794 271.531C352.873 271.538 341.633 266.325 328.817 259.947C307.165 249.17 305.656 248.247 307.493 246.9C310.552 244.656 358.021 220.942 362.017 219.66C371.024 216.772 382.243 216.362 390.97 218.602ZM351.97 242.044C358.295 238.845 365.27 235.654 367.47 234.953C373.09 233.161 386.077 233.17 388.529 234.966C390.445 236.369 390.443 236.425 388.388 239.216C385.578 243.034 378.741 246.628 365.977 250.997L355.323 254.644L347.897 251.252L340.47 247.86L351.97 242.044Z" fill="black"/>
</svg>
