<svg width="100" height="100" viewBox="0 0 100 100" fill="none" xmlns="http://www.w3.org/2000/svg">
<path d="M92.9516 88.5791H72.3816C69.0412 88.5791 66.3332 91.2871 66.3332 94.6275C66.3332 91.2871 63.6252 88.5791 60.2848 88.5791H39.7148C36.3744 88.5791 33.6664 91.2871 33.6664 94.6275C33.6664 91.2871 30.9584 88.5791 27.618 88.5791H7.0484C3.708 88.5791 1 91.2869 1 94.6273V98.9999H99V94.6273C99 91.2869 96.292 88.5791 92.9516 88.5791Z" fill="#EDEBE5"/>
<path d="M56.3888 21.4551C54.5752 22.7129 52.3746 23.4521 50.0002 23.4521C47.6258 23.4521 45.4252 22.7131 43.6116 21.4551H13.9336V25.9929L35.4292 29.5021C36.8554 29.7349 37.9028 30.9671 37.9028 32.4121V46.6555H62.0978V32.4121C62.0978 30.9671 63.1452 29.7349 64.5714 29.5021L86.067 25.9929V21.4551H56.3888Z" fill="#EDEBE5"/>
<path d="M50.0002 23.4516C56.2001 23.4516 61.226 18.4256 61.226 12.2258C61.226 6.02596 56.2001 1 50.0002 1C43.8004 1 38.7744 6.02596 38.7744 12.2258C38.7744 18.4256 43.8004 23.4516 50.0002 23.4516Z" fill="#F3EFE7"/>
<path d="M7.51467 21.4551C6.62367 21.4551 5.83267 22.1027 5.73447 22.9883C5.63147 23.9175 6.27387 24.7427 7.17367 24.8895L13.9329 25.9929V21.4551H7.51467Z" fill="#F3EFE7"/>
<path d="M94.2648 22.9883C94.1666 22.1027 93.3756 21.4551 92.4846 21.4551H86.0664V25.9929L92.8256 24.8895C93.7252 24.7427 94.3678 23.9175 94.2648 22.9883Z" fill="#F3EFE7"/>
<path d="M71.4637 59.8553H28.5369C25.1359 59.8553 22.3789 57.0983 22.3789 53.6973V52.8133C22.3789 49.4123 25.1359 46.6553 28.5369 46.6553H71.4637C74.8647 46.6553 77.6217 49.4123 77.6217 52.8133V53.6973C77.6217 57.0983 74.8647 59.8553 71.4637 59.8553Z" fill="#DACEB0"/>
<path d="M57.9311 46.6553H42.0693V59.8553H57.9311V46.6553Z" fill="#F3EFE7"/>
<path d="M17.3339 88.5789C22.9791 88.5789 27.5555 84.0026 27.5555 78.3573C27.5555 72.7121 22.9791 68.1357 17.3339 68.1357C11.6887 68.1357 7.1123 72.7121 7.1123 78.3573C7.1123 84.0026 11.6887 88.5789 17.3339 88.5789Z" fill="#F3EFE7"/>
<path d="M49.9999 88.5789C55.6452 88.5789 60.2215 84.0026 60.2215 78.3573C60.2215 72.7121 55.6452 68.1357 49.9999 68.1357C44.3547 68.1357 39.7783 72.7121 39.7783 78.3573C39.7783 84.0026 44.3547 88.5789 49.9999 88.5789Z" fill="#F3EFE7"/>
<path d="M82.6669 88.5789C88.3121 88.5789 92.8885 84.0026 92.8885 78.3573C92.8885 72.7121 88.3121 68.1357 82.6669 68.1357C77.0217 68.1357 72.4453 72.7121 72.4453 78.3573C72.4453 84.0026 77.0217 88.5789 82.6669 88.5789Z" fill="#F3EFE7"/>
<path d="M23.2444 13.6798C23.2444 13.1276 23.6922 12.6798 24.2444 12.6798H25.4394V11.4848C25.4394 10.9326 25.8872 10.4848 26.4394 10.4848C26.9916 10.4848 27.4394 10.9326 27.4394 11.4848V12.6798H28.6344C29.1866 12.6798 29.6344 13.1276 29.6344 13.6798C29.6344 14.232 29.1866 14.6798 28.6344 14.6798H27.4394V15.8748C27.4394 16.427 26.9916 16.8748 26.4394 16.8748C25.8872 16.8748 25.4394 16.427 25.4394 15.8748V14.6798H24.2444C23.6922 14.6798 23.2444 14.2322 23.2444 13.6798ZM71.3658 14.6798H72.5606V15.8748C72.5606 16.427 73.0082 16.8748 73.5606 16.8748C74.113 16.8748 74.5606 16.427 74.5606 15.8748V14.6798H75.7556C76.308 14.6798 76.7556 14.232 76.7556 13.6798C76.7556 13.1276 76.308 12.6798 75.7556 12.6798H74.5606V11.4848C74.5606 10.9326 74.113 10.4848 73.5606 10.4848C73.0082 10.4848 72.5606 10.9326 72.5606 11.4848V12.6798H71.3658C70.8134 12.6798 70.3658 13.1276 70.3658 13.6798C70.3658 14.232 70.8134 14.6798 71.3658 14.6798ZM14.1734 58.8552H23.5812C22.2252 57.5518 21.3786 55.7222 21.3786 53.6972V52.8132C21.3786 48.8662 24.5896 45.6552 28.5366 45.6552H71.4634C75.4102 45.6552 78.6214 48.8662 78.6214 52.8132V53.6972C78.6214 55.7222 77.7748 57.5518 76.4188 58.8552H85.8266C86.379 58.8552 86.8266 59.303 86.8266 59.8552C86.8266 60.4074 86.379 60.8552 85.8266 60.8552H71.4636H67.9134H32.0868H28.5368H14.1734C13.6212 60.8552 13.1734 60.4074 13.1734 59.8552C13.1734 59.303 13.6212 58.8552 14.1734 58.8552ZM71.4634 47.6552H58.9308V56.18C58.9308 56.7322 58.4832 57.18 57.9308 57.18C57.3784 57.18 56.9308 56.7322 56.9308 56.18V54.2552H43.069V58.8552H67.9132H71.4634C74.3076 58.8552 76.6214 56.5414 76.6214 53.6972V52.8132C76.6214 49.969 74.3076 47.6552 71.4634 47.6552ZM28.5366 58.8552H32.0866H41.069V50.2328C41.069 49.6806 41.5168 49.2328 42.069 49.2328C42.6212 49.2328 43.069 49.6806 43.069 50.2328V52.2552H56.9308V47.6552H28.5366C25.6924 47.6552 23.3786 49.969 23.3786 52.8132V53.6972C23.3786 56.5414 25.6924 58.8552 28.5366 58.8552ZM9.4416 58.8552C8.8894 58.8552 8.4416 59.303 8.4416 59.8552C8.4416 60.4074 8.8894 60.8552 9.4416 60.8552H10.7936C11.3458 60.8552 11.7936 60.4074 11.7936 59.8552C11.7936 59.303 11.3458 58.8552 10.7936 58.8552H9.4416ZM89.2064 58.8552C88.654 58.8552 88.2064 59.303 88.2064 59.8552C88.2064 60.4074 88.654 60.8552 89.2064 60.8552H90.5584C91.1108 60.8552 91.5584 60.4074 91.5584 59.8552C91.5584 59.303 91.1108 58.8552 90.5584 58.8552H89.2064ZM4.7412 22.8776C4.8946 21.4964 6.087 20.4548 7.5154 20.4548H38.7744C39.3266 20.4548 39.7744 20.9026 39.7744 21.4548C39.7744 22.007 39.3266 22.4548 38.7744 22.4548H14.9334V25.1426L35.5902 28.515C36.0642 28.5924 36.5058 28.7512 36.9026 28.975V26.974C36.9026 26.4218 37.3504 25.974 37.9026 25.974C38.4548 25.974 38.9026 26.4218 38.9026 26.974V32.412V33.1406V42.9554C38.9026 43.5076 38.4548 43.9554 37.9026 43.9554C37.3504 43.9554 36.9026 43.5076 36.9026 42.9554V33.1406V32.412C36.9026 31.4524 36.2152 30.6436 35.268 30.489L7.013 25.876C5.5786 25.6418 4.5806 24.3248 4.7412 22.8776ZM7.3354 23.9022L12.9334 24.816V22.4546H7.5154C7.1146 22.4546 6.7692 22.7372 6.7292 23.098C6.686 23.4864 6.9522 23.8396 7.3354 23.9022ZM61.2576 20.4546H92.4848C93.9134 20.4546 95.1058 21.4962 95.2588 22.8776C95.4194 24.3246 94.4214 25.6416 92.987 25.8758L64.7324 30.4884C63.7852 30.643 63.0976 31.4518 63.0976 32.4114V33.14V42.9548C63.0976 43.507 62.65 43.9548 62.0976 43.9548C61.5452 43.9548 61.0976 43.507 61.0976 42.9548V33.14V32.4114V26.9734C61.0976 26.4212 61.5452 25.9734 62.0976 25.9734C62.65 25.9734 63.0976 26.4212 63.0976 26.9734V28.9746C63.4944 28.7508 63.936 28.592 64.4102 28.5146L85.0668 25.1424V22.4546H61.2576C60.7052 22.4546 60.2576 22.0068 60.2576 21.4546C60.2576 20.9024 60.7052 20.4546 61.2576 20.4546ZM92.4848 22.4546H87.0666V24.816L92.6646 23.902C93.0476 23.8394 93.314 23.4862 93.2708 23.098C93.231 22.7372 92.8858 22.4546 92.4848 22.4546ZM37.7742 12.2258C37.7742 5.4844 43.2586 0 50 0C56.7414 0 62.2256 5.4844 62.2256 12.2258C62.2256 18.9672 56.7412 24.4516 50 24.4516C43.2586 24.4516 37.7742 18.9672 37.7742 12.2258ZM39.7742 12.2258C39.7742 17.8644 44.3616 22.4516 50 22.4516C55.6384 22.4516 60.2256 17.8642 60.2256 12.2258C60.2258 6.5874 55.6384 2 50 2C44.3616 2 39.7742 6.5874 39.7742 12.2258ZM100 94.6276V95.8668C100 96.419 99.5524 96.8668 99 96.8668C98.4476 96.8668 98 96.419 98 95.8668V94.6276C98 91.844 95.7354 89.5792 92.9516 89.5792H72.3816C69.598 89.5792 67.3334 91.844 67.3334 94.6276V95.8668C67.3334 96.419 66.8858 96.8668 66.3334 96.8668C65.781 96.8668 65.3334 96.419 65.3334 95.8668V94.6276C65.3334 91.844 63.0688 89.5792 60.285 89.5792H39.715C36.9314 89.5792 34.6666 91.844 34.6666 94.6276V95.8668C34.6666 96.419 34.2188 96.8668 33.6666 96.8668C33.1144 96.8668 32.6666 96.419 32.6666 95.8668V94.6276C32.6666 91.844 30.402 89.5792 27.6182 89.5792H7.0484C4.2646 89.5792 2 91.8438 2 94.6276V95.8668C2 96.419 1.5522 96.8668 1 96.8668C0.4478 96.8668 0 96.419 0 95.8668V94.6276C0 90.741 3.162 87.5792 7.0484 87.5792H10.9498C8.029 85.5512 6.1116 82.175 6.1116 78.3576C6.1116 72.17 11.1456 67.136 17.3332 67.136C23.5208 67.136 28.5548 72.17 28.5548 78.3576C28.5548 82.1748 26.6374 85.5512 23.7166 87.5792H27.6182C30.184 87.5792 32.4336 88.957 33.6666 91.0118C34.8996 88.957 37.1492 87.5792 39.715 87.5792H43.6164C40.6956 85.5512 38.7782 82.175 38.7782 78.3576C38.7782 72.17 43.8122 67.136 49.9998 67.136C56.1874 67.136 61.2214 72.17 61.2214 78.3576C61.2214 82.1748 59.304 85.5512 56.3832 87.5792H60.2846C62.8502 87.5792 65.1 88.957 66.333 91.0118C67.5658 88.957 69.8156 87.5792 72.3812 87.5792H76.2826C73.3618 85.5512 71.4444 82.175 71.4444 78.3576C71.4444 72.17 76.4784 67.136 82.666 67.136C88.8536 67.136 93.8876 72.17 93.8876 78.3576C93.8876 82.1748 91.9702 85.5512 89.0494 87.5792H92.9508C96.838 87.5792 100 90.741 100 94.6276ZM17.3334 87.5792C22.4182 87.5792 26.555 83.4424 26.555 78.3576C26.555 73.2728 22.4182 69.136 17.3334 69.136C12.2486 69.136 8.1118 73.2728 8.1118 78.3576C8.1116 83.4422 12.2484 87.5792 17.3334 87.5792ZM50 87.5792C55.0848 87.5792 59.2216 83.4424 59.2216 78.3576C59.2216 73.2728 55.0846 69.136 50 69.136C44.9152 69.136 40.7784 73.2728 40.7784 78.3576C40.7784 83.4422 44.9152 87.5792 50 87.5792ZM82.6666 87.5792C87.7514 87.5792 91.8882 83.4424 91.8882 78.3576C91.8882 73.2728 87.7512 69.136 82.6666 69.136C77.582 69.136 73.445 73.2728 73.445 78.3576C73.445 83.4422 77.5818 87.5792 82.6666 87.5792Z" fill="#3F3F3F"/>
</svg>
