<svg width="100" height="100" viewBox="0 0 100 100" fill="none" xmlns="http://www.w3.org/2000/svg">
<g clip-path="url(#clip0_629_1686)">
<path d="M49.9997 99.0004C73.0925 99.0004 91.8129 80.28 91.8129 57.1872C91.8129 34.0944 73.0925 15.374 49.9997 15.374C26.9069 15.374 8.18652 34.0944 8.18652 57.1872C8.18652 80.28 26.9069 99.0004 49.9997 99.0004Z" fill="#EDEBE5"/>
<path d="M46.8337 3.1666C46.8337 2.6144 47.2815 2.1666 47.8337 2.1666H49.0003V1C49.0003 0.4478 49.4481 0 50.0003 0C50.5525 0 51.0003 0.4478 51.0003 1V2.1666H52.1669C52.7191 2.1666 53.1669 2.6144 53.1669 3.1666C53.1669 3.7188 52.7191 4.1666 52.1669 4.1666H51.0003V5.3332C51.0003 5.8854 50.5525 6.3332 50.0003 6.3332C49.4481 6.3332 49.0003 5.8854 49.0003 5.3332V4.1666H47.8337C47.2815 4.1666 46.8337 3.7188 46.8337 3.1666ZM22.5185 13.6666H23.6851V14.8332C23.6851 15.3854 24.1329 15.8332 24.6851 15.8332C25.2373 15.8332 25.6851 15.3854 25.6851 14.8332V13.6666H26.8517C27.4039 13.6666 27.8517 13.2188 27.8517 12.6666C27.8517 12.1144 27.4039 11.6666 26.8517 11.6666H25.6851V10.5C25.6851 9.9478 25.2373 9.5 24.6851 9.5C24.1329 9.5 23.6851 9.9478 23.6851 10.5V11.6666H22.5185C21.9663 11.6666 21.5185 12.1144 21.5185 12.6666C21.5185 13.2188 21.9663 13.6666 22.5185 13.6666ZM73.1491 13.6666H74.3157V14.8332C74.3157 15.3854 74.7635 15.8332 75.3157 15.8332C75.8679 15.8332 76.3157 15.3854 76.3157 14.8332V13.6666H77.4823C78.0345 13.6666 78.4823 13.2188 78.4823 12.6666C78.4823 12.1144 78.0345 11.6666 77.4823 11.6666H76.3157V10.5C76.3157 9.9478 75.8679 9.5 75.3157 9.5C74.7635 9.5 74.3157 9.9478 74.3157 10.5V11.6666H73.1491C72.5969 11.6666 72.1491 12.1144 72.1491 12.6666C72.1491 13.2188 72.5967 13.6666 73.1491 13.6666ZM85.0335 24.3734C85.2303 24.5834 85.4963 24.6894 85.7631 24.6894C86.0083 24.6894 86.2539 24.5998 86.4469 24.4188C86.8499 24.041 86.8701 23.4082 86.4925 23.0054C86.1219 22.6102 85.7395 22.2152 85.3557 21.8314C84.9651 21.441 84.3321 21.441 83.9415 21.8314C83.5509 22.222 83.5509 22.8552 83.9415 23.2456C84.3101 23.6144 84.6775 23.9938 85.0335 24.3734ZM88.8951 25.7608C88.5475 25.3314 87.9177 25.2654 87.4887 25.6132C87.0595 25.9608 86.9933 26.5904 87.3411 27.0196C102.829 46.1414 101.367 73.7022 83.9415 91.128C83.5509 91.5186 83.5509 92.1518 83.9415 92.5422C84.1369 92.7374 84.3927 92.835 84.6487 92.835C84.9047 92.835 85.1605 92.7374 85.3559 92.5422C94.1479 83.7502 99.3271 72.0744 99.9393 59.666C100.547 47.3454 96.6249 35.3042 88.8951 25.7608ZM16.0593 91.1282C15.7995 90.8682 15.5431 90.606 15.2903 90.3418C14.9087 89.9424 14.2757 89.9282 13.8765 90.3098C13.4771 90.6914 13.4629 91.3244 13.8445 91.7236C14.1073 91.9988 14.3743 92.2716 14.6447 92.542C14.8401 92.7374 15.0959 92.835 15.3519 92.835C15.6077 92.835 15.8637 92.7374 16.0589 92.5422C16.4497 92.1518 16.4497 91.5186 16.0593 91.1282ZM12.1783 89.3444C12.4025 89.3444 12.6281 89.2694 12.8145 89.1154C13.2403 88.7638 13.3005 88.1334 12.9489 87.7076C-2.87034 68.5506 -1.53314 40.838 16.0593 23.2456C16.4499 22.855 16.4499 22.2218 16.0593 21.8314C15.6687 21.441 15.0357 21.441 14.6451 21.8314C5.79426 30.6822 0.611261 42.4376 0.0508615 54.9326C-0.506138 67.3466 3.52686 79.4386 11.4067 88.981C11.6045 89.2206 11.8903 89.3444 12.1783 89.3444ZM23.0919 40.8666C22.7503 40.7188 22.4107 40.5682 22.0739 40.4148C21.5709 40.1864 20.9783 40.4082 20.7495 40.9108C20.5207 41.4136 20.7429 42.0066 21.2455 42.2352C21.5937 42.3936 21.9443 42.549 22.2975 42.702C22.4269 42.758 22.5615 42.7846 22.6941 42.7846C23.0807 42.7846 23.4489 42.559 23.6123 42.1814C23.8317 41.6748 23.5987 41.086 23.0919 40.8666ZM84.0753 99C84.0753 99.5522 83.6275 100 83.0753 100H16.9253C16.3731 100 15.9253 99.5522 15.9253 99C15.9253 98.4478 16.3731 98 16.9253 98H37.0083C30.5587 95.955 24.6485 92.382 19.7267 87.4604C11.6403 79.374 7.18706 68.6228 7.18706 57.1868C7.18706 45.7508 11.6405 34.9996 19.7267 26.9132C27.8131 18.827 38.5645 14.3736 50.0003 14.3736C61.4361 14.3736 72.1875 18.827 80.2739 26.9132C88.3603 34.9996 92.8135 45.7508 92.8135 57.1868C92.8135 68.6228 88.3601 79.374 80.2739 87.4604C75.3521 92.382 69.4419 95.955 62.9923 98H83.0753C83.6275 98 84.0753 98.4478 84.0753 99ZM34.2471 19.5376C39.2301 21.6296 44.5187 22.6898 50.0003 22.6898C55.4819 22.6898 60.7705 21.6296 65.7535 19.5376C60.9037 17.5008 55.5815 16.3736 50.0003 16.3736C44.4191 16.3736 39.0969 17.5008 34.2471 19.5376ZM22.7303 26.849C30.7765 31.5372 40.1735 34.0106 50.0003 34.0106C59.8271 34.0106 69.2241 31.5372 77.2703 26.849C74.5429 24.3948 71.4837 22.3034 68.1697 20.6488C62.4659 23.328 56.3567 24.69 50.0003 24.69C43.6439 24.69 37.5347 23.328 31.8309 20.6488C28.5169 22.3034 25.4577 24.3948 22.7303 26.849ZM10.4505 47.0958C21.3309 53.8722 35.3411 57.5994 50.0003 57.5994C64.6595 57.5994 78.6697 53.8722 89.5501 47.0958C88.7555 43.9828 87.6005 41.013 86.1351 38.2308C76.0297 44.7046 63.2473 48.2594 50.0003 48.2594C41.5545 48.2594 33.4357 46.867 25.8693 44.1208C25.3501 43.9324 25.0821 43.3588 25.2705 42.8396C25.4589 42.3204 26.0323 42.0526 26.5517 42.2408C33.8987 44.9074 41.7881 46.2596 50.0003 46.2596C62.9137 46.2596 75.3555 42.7918 85.1573 36.4804C83.3835 33.4802 81.2385 30.7246 78.7831 28.2796C70.3201 33.3392 60.3875 36.0106 50.0003 36.0106C39.6131 36.0106 29.6805 33.3394 21.2175 28.2796C18.7627 30.724 16.6181 33.479 14.8447 36.4782C16.1463 37.316 17.5033 38.1146 18.8969 38.8532C19.3849 39.1118 19.5709 39.717 19.3123 40.205C19.1329 40.5438 18.7863 40.737 18.4279 40.737C18.2699 40.737 18.1097 40.6994 17.9605 40.6204C16.5547 39.8754 15.1841 39.0716 13.8673 38.228C12.4009 41.011 11.2455 43.9818 10.4505 47.0958ZM9.18846 57.077C20.1515 64.6406 34.6195 68.8032 50.0003 68.8032C65.3811 68.8032 79.8491 64.6406 90.8121 57.077C90.8049 54.3676 90.5317 51.7196 90.0185 49.1572C78.9109 55.8988 64.7657 59.5994 50.0003 59.5994C35.2349 59.5994 21.0897 55.8988 9.98206 49.1572C9.46886 51.7196 9.19566 54.3676 9.18846 57.077ZM10.6177 67.9036C21.2115 75.4218 35.1793 79.5604 50.0003 79.5604C64.8213 79.5604 78.7891 75.4218 89.3829 67.9036C90.1161 65.2122 90.5807 62.4114 90.7445 59.531C79.6075 66.8106 65.2287 70.803 50.0003 70.803C34.7719 70.803 20.3931 66.8106 9.25606 59.531C9.41986 62.4114 9.88446 65.2122 10.6177 67.9036ZM50.0003 90.0322C61.8235 90.0322 73.0475 87.2104 82.4785 81.8724C84.9787 78.5908 86.9939 74.9214 88.4157 70.9704C77.7799 77.8156 64.2647 81.5604 50.0003 81.5604C35.7359 81.5604 22.2207 77.8158 11.5849 70.9706C13.0069 74.9214 15.0219 78.591 17.5221 81.8726C26.9531 87.2104 38.1771 90.0322 50.0003 90.0322ZM50.0003 98C61.3081 98 71.5557 93.3764 78.9545 85.9216C70.2417 89.9314 60.3387 92.0322 50.0003 92.0322C39.6619 92.0322 29.7589 89.9314 21.0461 85.9216C28.4449 93.3764 38.6925 98 50.0003 98ZM88.8669 98H87.2669C86.7147 98 86.2669 98.4478 86.2669 99C86.2669 99.5522 86.7147 100 87.2669 100H88.8669C89.4191 100 89.8669 99.5522 89.8669 99C89.8669 98.4478 89.4193 98 88.8669 98ZM12.7337 98H11.1337C10.5815 98 10.1337 98.4478 10.1337 99C10.1337 99.5522 10.5815 100 11.1337 100H12.7337C13.2859 100 13.7337 99.5522 13.7337 99C13.7337 98.4478 13.2859 98 12.7337 98Z" fill="#3F3F3F"/>
</g>
<defs>
<clipPath id="clip0_629_1686">
<rect width="100" height="100" fill="white"/>
</clipPath>
</defs>
</svg>
