<svg width="100" height="100" viewBox="0 0 100 100" fill="none" xmlns="http://www.w3.org/2000/svg">
<g clip-path="url(#clip0_629_1642)">
<path d="M51.8122 62.6875C49.1278 62.6875 46.5082 63.5127 44.3082 65.0511L40.8346 67.4805C39.0054 68.7595 36.8796 69.5499 34.659 69.7765L4.1476 72.8881C2.3598 73.0703 1 74.5759 1 76.3729C1 78.3075 2.5684 79.8759 4.503 79.8759H56.0106V62.6875H51.8122Z" fill="#DACEB0"/>
<path d="M9.7772 72.3135L4.1476 72.8875C2.3598 73.0699 1 74.5753 1 76.3723C1 78.3069 2.5684 79.8753 4.503 79.8753H9.7772V72.3135Z" fill="#F3EFE7"/>
<path d="M64.8232 41.3047C70.5025 41.3047 75.1064 36.7007 75.1064 31.0215C75.1064 25.3422 70.5025 20.7383 64.8232 20.7383C59.144 20.7383 54.54 25.3422 54.54 31.0215C54.54 36.7007 59.144 41.3047 64.8232 41.3047Z" fill="#F3EFE7"/>
<path d="M68.0298 58.3992V49.9404C68.0298 48.214 66.703 46.7284 64.9786 46.6472C63.1374 46.5604 61.6172 48.0276 61.6172 49.8498V59.3082C61.6172 60.129 61.9444 60.916 62.5264 61.495L80.189 79.0634C80.7122 79.5838 81.42 79.8758 82.158 79.8758C84.6206 79.8758 85.8772 76.9198 84.1684 75.1466L68.0298 58.3992Z" fill="#F3EFE7"/>
<path d="M84.1677 60.0122L73.6357 49.083V57.4114L80.1883 63.929C80.7115 64.4494 81.4193 64.7414 82.1571 64.7414C84.6199 64.7414 85.8765 61.7854 84.1677 60.0122Z" fill="#F3EFE7"/>
<path d="M61.6175 59.3075V49.8491C61.6175 48.0269 63.1375 46.5597 64.9787 46.6465C66.7033 46.7277 68.0299 48.2133 68.0299 49.9397V58.3985L73.6367 64.2167V47.6643C73.6367 44.1519 70.7895 41.3047 67.2771 41.3047H62.3703C58.8581 41.3047 56.0107 44.1519 56.0107 47.6643V65.6505V79.8751H63.2315C68.0381 79.8751 72.0813 76.6153 73.2761 72.1865L62.5265 61.4943C61.9447 60.9155 61.6175 60.1285 61.6175 59.3075Z" fill="#EDEBE5"/>
<path d="M44.216 22.3442C44.2136 21.7918 44.6594 21.3424 45.2118 21.34L46.4068 21.335L46.4018 20.14C46.3994 19.5876 46.8452 19.1382 47.3976 19.1358C47.95 19.1334 48.3994 19.5792 48.4018 20.1316L48.4068 21.3266L49.6018 21.3216C50.1542 21.3192 50.6036 21.765 50.606 22.3174C50.6084 22.8698 50.1626 23.3192 49.6102 23.3216L48.4152 23.3266L48.4202 24.5216C48.4226 25.074 47.9768 25.5234 47.4244 25.5258C46.872 25.5282 46.4226 25.0824 46.4202 24.53L46.4152 23.335L45.2202 23.34C44.6678 23.3422 44.2182 22.8964 44.216 22.3442ZM45.2632 33.537L46.4582 33.532L46.4632 34.7269C46.4656 35.2793 46.915 35.725 47.4674 35.7227C48.0198 35.7204 48.4654 35.271 48.4632 34.7186L48.4582 33.5236L49.6532 33.5186C50.2056 33.5162 50.6512 33.0668 50.649 32.5144C50.6466 31.962 50.1972 31.5164 49.6448 31.5186L48.4498 31.5236L48.4448 30.3288C48.4424 29.7764 47.993 29.3307 47.4406 29.3329C46.8882 29.3354 46.4426 29.7848 46.4448 30.3372L46.4498 31.532L45.2548 31.537C44.7024 31.5394 44.2568 31.9887 44.259 32.5411C44.2614 33.0935 44.7108 33.5393 45.2632 33.537ZM95.0446 63.5519L85.5562 63.5919C85.6088 63.4917 85.6588 63.3893 85.7036 63.2829C86.3028 61.8563 86.0054 60.2812 84.927 59.1714L77.4888 51.5173C77.1042 51.1213 76.4712 51.1122 76.0746 51.4972C75.6786 51.882 75.6696 52.5153 76.0544 52.9113L83.4926 60.5653C84.0098 61.0975 84.1472 61.824 83.8596 62.5084C83.5722 63.1926 82.9574 63.6029 82.2152 63.6061C81.7382 63.6081 81.2888 63.4249 80.9494 63.0899L77.5084 59.6964C77.1152 59.3083 76.4818 59.3132 76.0942 59.706C75.7064 60.0992 75.7106 60.7323 76.1038 61.1201L79.5448 64.5137C80.2632 65.2221 81.2144 65.6101 82.2236 65.6059L95.053 65.5517C95.6054 65.5493 96.0512 65.0999 96.0488 64.5475C96.0464 63.9953 95.5968 63.5495 95.0446 63.5519ZM98.2938 65.5383L99.0654 65.5351C99.6178 65.5327 100.063 65.0834 100.061 64.531C100.059 63.9785 99.6094 63.5327 99.057 63.5352L98.2854 63.5383C97.733 63.5407 97.2874 63.9901 97.2896 64.5425C97.292 65.0947 97.7414 65.5406 98.2938 65.5383ZM96.1128 79.6811C96.1152 80.2335 95.6694 80.6829 95.117 80.6853L82.2876 80.7396C81.2784 80.7438 80.3272 80.3557 79.6088 79.6473L73.7928 73.911C72.0256 78.0294 67.945 80.8002 63.3612 80.8196L56.1406 80.8501L4.63337 81.0678C2.15037 81.0782 0.12197 79.067 0.11137 76.584C0.10157 74.2654 1.83297 72.3322 4.13857 72.087L34.6368 68.8465C36.6818 68.6293 38.6512 67.8875 40.3316 66.7019L43.7952 64.2577C46.1678 62.5835 48.957 61.6919 51.8614 61.6797L55.0596 61.6661L55.0004 47.6437C54.9876 44.6345 56.7932 42.0351 59.3814 40.8847C55.8728 38.9817 53.4778 35.2724 53.4598 31.0074C53.4336 24.786 58.4738 19.703 64.6952 19.6766C70.9166 19.6504 75.9996 24.6906 76.026 30.912C76.044 35.177 73.6804 38.9063 70.1882 40.8389C72.7862 41.9673 74.6136 44.5513 74.6264 47.5607L74.6946 63.7095L84.9914 74.3048C86.0698 75.4146 86.3672 76.9897 85.768 78.4163C85.7234 78.5227 85.6732 78.6251 85.6206 78.7253L95.109 78.6853C95.6608 78.6831 96.1104 79.1287 96.1128 79.6811ZM64.7818 40.2429C69.9006 40.2213 74.0474 36.0394 74.0256 30.9206C74.0038 25.8018 69.822 21.655 64.7032 21.6766C59.5844 21.6982 55.4376 25.8802 55.4592 30.999C55.481 36.1178 59.663 40.2645 64.7818 40.2429ZM10.875 73.3826L10.899 79.0412L55.132 78.8543L55.0678 63.6661L51.8696 63.6797C51.8272 63.68 51.7848 63.6821 51.7424 63.6827L51.7706 70.3775C51.773 70.9299 51.3272 71.3794 50.7748 71.3818C50.2224 71.3842 49.773 70.9384 49.7706 70.386L49.7432 63.8773C48.0262 64.1898 46.3964 64.8698 44.948 65.8919L41.4844 68.3361C39.526 69.7179 37.2312 70.5821 34.8478 70.8355L10.875 73.3826ZM4.62477 79.0678L8.89897 79.0498L8.87597 73.5951L4.34977 74.076C3.06837 74.2119 2.10577 75.2866 2.11137 76.5756C2.11697 77.9554 3.24457 79.0736 4.62477 79.0678ZM72.2392 72.3792L61.8718 62.1542C61.5998 61.8857 61.3708 61.5789 61.1852 61.2483C60.847 60.6455 60.6586 59.9605 60.6556 59.2633L60.6156 49.8049C60.6106 48.6437 61.0688 47.5609 61.9058 46.7557C62.6376 46.0517 63.5698 45.6437 64.5726 45.5873C64.7158 45.5793 64.8604 45.5786 65.0062 45.5849C67.252 45.681 69.0186 47.5588 69.0284 49.8599L69.0624 57.9151L72.685 61.6427L72.6256 47.5693C72.6132 44.6141 70.1986 42.2199 67.2434 42.2325L62.3366 42.2533C59.3814 42.2657 56.9872 44.6803 56.9998 47.6355L57.0632 62.6579L57.1316 78.8461L63.3522 78.82C67.403 78.8025 70.979 76.182 72.2392 72.3792ZM81.0132 78.2235C81.3528 78.5583 81.8022 78.7417 82.279 78.7397C83.0212 78.7365 83.636 78.3262 83.9234 77.642C84.211 76.9576 84.0736 76.2312 83.5564 75.699L67.3472 59.0199C67.167 58.8343 67.0654 58.5859 67.0644 58.3271L67.0286 49.8683C67.0234 48.6577 66.078 47.6325 64.9206 47.5829C64.8606 47.5805 64.801 47.5823 64.7416 47.5846C64.7136 47.5856 64.6858 47.5868 64.6582 47.5887C64.6096 47.5924 64.5616 47.5977 64.5138 47.6044C64.491 47.6075 64.468 47.6105 64.4452 47.6144C64.394 47.6231 64.3434 47.6341 64.293 47.6465C64.2734 47.6514 64.2538 47.6555 64.2346 47.6609C64.1828 47.6751 64.1318 47.6919 64.0812 47.7099C64.0636 47.7162 64.0458 47.7217 64.0284 47.7283C63.978 47.7477 63.9288 47.7699 63.88 47.7929C63.863 47.8009 63.8456 47.8079 63.829 47.8165C63.7816 47.8405 63.7354 47.8674 63.6898 47.895C63.6728 47.9052 63.6552 47.9142 63.6384 47.9249C63.594 47.9531 63.5514 47.9845 63.509 48.0161C63.4924 48.0285 63.475 48.0395 63.4586 48.0523C63.4114 48.0895 63.3664 48.1297 63.322 48.1712C63.3124 48.1801 63.302 48.1879 63.2924 48.1971C62.9082 48.5667 62.6762 49.0478 62.626 49.5704C62.6188 49.645 62.6154 49.7204 62.6156 49.7965L62.6556 59.255C62.6574 59.6682 62.785 60.0737 63.0142 60.4139C63.0906 60.5273 63.1782 60.6334 63.2762 60.7297L73.6426 70.954L74.0712 71.3767L81.0132 78.2235ZM99.121 78.6686L98.3494 78.6717C97.797 78.6741 97.3512 79.1236 97.3536 79.6759C97.356 80.2283 97.8054 80.6741 98.3578 80.6717L99.1294 80.6686C99.6818 80.6661 100.128 80.2168 100.125 79.6644C100.123 79.112 99.6732 78.6662 99.121 78.6686ZM50.794 75.8879C51.3464 75.8855 51.792 75.4361 51.7898 74.8838L51.787 74.2172C51.7846 73.6648 51.3352 73.219 50.7828 73.2214C50.2304 73.2238 49.7848 73.6732 49.787 74.2256L49.7898 74.8922C49.792 75.4446 50.2416 75.8903 50.794 75.8879Z" fill="#3F3F3F"/>
</g>
<defs>
<clipPath id="clip0_629_1642">
<rect width="100" height="100" fill="white"/>
</clipPath>
</defs>
</svg>
