<svg width="100" height="100" viewBox="0 0 100 100" fill="none" xmlns="http://www.w3.org/2000/svg">
<g clip-path="url(#clip0_629_1694)">
<path d="M90.8332 41.8373C95.3438 41.8373 99.0004 38.1807 99.0004 33.6701C99.0004 29.1595 95.3438 25.5029 90.8332 25.5029C86.3226 25.5029 82.666 29.1595 82.666 33.6701C82.666 38.1807 86.3226 41.8373 90.8332 41.8373Z" fill="#F3EFE7"/>
<path d="M72.4375 53.9004L72.4751 56.3552C72.4979 57.8418 73.7093 59.0348 75.1961 59.0348C76.6829 59.0348 77.8943 57.8416 77.9171 56.3552L77.9547 53.9004H72.4375Z" fill="#F3EFE7"/>
<path d="M72.3037 45.1722L72.4373 53.9004H77.9545L78.1207 43.041C76.3221 44.0892 74.3531 44.8124 72.3037 45.1722Z" fill="#EDEBE5"/>
<path d="M82.6659 33.6701C82.2175 33.8933 81.7593 34.0933 81.2929 34.2699C79.3253 35.0147 77.1043 34.5503 75.5941 33.0855C71.4011 29.0189 62.0009 19.9017 56.7467 14.8057L52.7861 18.7663L68.7649 35.2419H59.9213C57.6147 35.2419 55.3507 34.6201 53.3677 33.4419C53.2201 33.3543 53.0713 33.2693 52.9215 33.1871V45.4377H69.2605C73.3569 45.4377 77.3247 44.0087 80.4807 41.3973L84.1495 38.3611C83.2157 37.0333 82.6659 35.4165 82.6659 33.6701Z" fill="#EDEBE5"/>
<path d="M3.7608 35.2416C2.236 35.2416 1 36.4776 1 38.0022C1 39.3954 2.038 40.5702 3.4204 40.7418L7.831 41.2894V35.2412H3.7608V35.2416Z" fill="#F3EFE7"/>
<path d="M37.6261 33.4607C35.6759 34.6259 33.4465 35.2413 31.1745 35.2413H7.83105V41.2895L39.9167 45.2739C40.7929 45.3827 41.6747 45.4373 42.5575 45.4373H52.9209V33.1867C48.1477 30.5613 42.3243 30.6535 37.6261 33.4607Z" fill="#DACEB0"/>
<path d="M52.9213 86.7643V45.4375H46.5999V63.6809C46.5999 64.7025 46.4965 65.7217 46.2911 66.7225L41.3765 90.6701C40.4937 94.9715 43.7795 99.0003 48.1707 99.0003H52.9213V86.7643Z" fill="#DACEB0"/>
<path d="M90.8332 99.0004C95.3438 99.0004 99.0004 95.3438 99.0004 90.8332C99.0004 86.3226 95.3438 82.666 90.8332 82.666C86.3226 82.666 82.666 86.3226 82.666 90.8332C82.666 95.3438 86.3226 99.0004 90.8332 99.0004Z" fill="#F3EFE7"/>
<path d="M83.1617 93.6299H78.4057L78.4437 96.1109C78.4679 97.6997 77.1867 99.0007 75.5977 99.0007H90.8328C87.3053 99.0007 84.3033 96.7627 83.1617 93.6299Z" fill="#F3EFE7"/>
<path d="M52.921 45.4375H46.5996V51.5549H52.921V45.4375Z" fill="#F3EFE7"/>
<path d="M77.9967 66.917L77.9171 61.7148C77.8943 60.2282 76.6829 59.0352 75.1961 59.0352C73.7093 59.0352 72.4979 60.2284 72.4751 61.7148L72.3955 66.917H77.9967Z" fill="#F3EFE7"/>
<path d="M77.9967 66.916H72.3953L72.0737 87.9254C70.4169 87.1678 68.6041 86.7638 66.7511 86.7638H52.9209V98.9998H74.7943H75.5973C77.1863 98.9998 78.4677 97.6988 78.4433 96.11L77.9967 66.916Z" fill="#EDEBE5"/>
<path d="M56.7461 14.805L53.0113 11.1828C51.9441 10.1478 50.2437 10.1608 49.1925 11.212C48.1413 12.2632 48.1283 13.9636 49.1633 15.0308L52.7855 18.7656L56.7461 14.805Z" fill="#F3EFE7"/>
<path d="M54.5622 3.195C54.5622 2.6428 55.0098 2.195 55.5622 2.195H56.7572V1C56.7572 0.4478 57.2048 0 57.7572 0C58.3096 0 58.7572 0.4478 58.7572 1V2.195H59.9522C60.5046 2.195 60.9522 2.6428 60.9522 3.195C60.9522 3.7472 60.5046 4.195 59.9522 4.195H58.7572V5.39C58.7572 5.9422 58.3096 6.39 57.7572 6.39C57.2048 6.39 56.7572 5.9422 56.7572 5.39V4.195H55.5622C55.0098 4.195 54.5622 3.7472 54.5622 3.195ZM74.4084 17.7854H75.6034V18.9804C75.6034 19.5326 76.051 19.9804 76.6034 19.9804C77.1558 19.9804 77.6034 19.5326 77.6034 18.9804V17.7854H78.7984C79.3508 17.7854 79.7984 17.3376 79.7984 16.7854C79.7984 16.2332 79.3508 15.7854 78.7984 15.7854H77.6034V14.5906C77.6034 14.0384 77.1558 13.5906 76.6034 13.5906C76.051 13.5906 75.6034 14.0384 75.6034 14.5906V15.7854H74.4084C73.856 15.7854 73.4084 16.2332 73.4084 16.7854C73.4084 17.3376 73.856 17.7854 74.4084 17.7854ZM36.7158 17.7854H37.9106V18.9804C37.9106 19.5326 38.3582 19.9804 38.9106 19.9804C39.463 19.9804 39.9106 19.5326 39.9106 18.9804V17.7854H41.1056C41.658 17.7854 42.1056 17.3376 42.1056 16.7854C42.1056 16.2332 41.658 15.7854 41.1056 15.7854H39.9106V14.5906C39.9106 14.0384 39.463 13.5906 38.9106 13.5906C38.3582 13.5906 37.9106 14.0384 37.9106 14.5906V15.7854H36.7158C36.1634 15.7854 35.7158 16.2332 35.7158 16.7854C35.7158 17.3376 36.1634 17.7854 36.7158 17.7854ZM100 90.833C100 95.8876 95.8876 100 90.8328 100H75.5976H74.7944H56.397C55.8446 100 55.397 99.5522 55.397 99C55.397 98.4478 55.8446 98 56.397 98H71.418C71.4096 97.9848 71.4026 97.969 71.3944 97.9536C71.3828 97.9316 71.3718 97.9094 71.3606 97.8872C71.3156 97.7984 71.274 97.7082 71.2362 97.6164C71.2304 97.6022 71.2236 97.5884 71.218 97.574C71.177 97.4708 71.1414 97.3656 71.1096 97.259C71.1024 97.2352 71.096 97.2112 71.0894 97.1872C71.0612 97.0854 71.0362 96.9828 71.0166 96.8786C71.015 96.8702 71.0128 96.8622 71.0114 96.854C70.9912 96.7434 70.9772 96.6314 70.9666 96.5184C70.9642 96.492 70.9622 96.4656 70.9602 96.4392C70.9518 96.325 70.9468 96.2104 70.9486 96.0946L71.0634 88.582C69.685 88.0388 68.2376 87.7638 66.751 87.7638H60.0662C59.5138 87.7638 59.0662 87.316 59.0662 86.7638C59.0662 86.2116 59.5138 85.7638 60.0662 85.7638H66.751C68.2404 85.7638 69.6962 85.9998 71.0958 86.4666L71.3952 66.916L71.475 61.6986C71.491 60.6486 71.9518 59.703 72.6722 59.0342C71.9518 58.3654 71.4908 57.4198 71.4748 56.3698L71.321 46.3174C70.6386 46.394 69.9508 46.437 69.2598 46.437H53.921V99C53.921 99.5522 53.4734 100 52.921 100H48.1702H26.8662C26.3138 100 25.8662 99.5522 25.8662 99C25.8662 98.4478 26.3138 98 26.8662 98H42.9034C42.5882 97.7196 42.2922 97.413 42.0206 97.08C40.507 95.2242 39.9152 92.8146 40.3966 90.4686L45.3112 66.521C45.5024 65.588 45.5994 64.6324 45.5994 63.6804V46.437H42.5574C41.6366 46.437 40.7064 46.3794 39.7932 46.2662L7.708 42.2818L3.2972 41.7342C1.4176 41.5008 0 39.8962 0 38.002C0 35.9284 1.6872 34.2414 3.7608 34.2414H7.8314H31.1748C33.2652 34.2414 35.3188 33.6746 37.1132 32.6024C42.086 29.6312 48.3282 29.519 53.4032 32.3102C53.7228 32.486 53.9214 32.8218 53.9214 33.1864V38.7078C53.9214 39.26 53.4738 39.7078 52.9214 39.7078C52.369 39.7078 51.9214 39.26 51.9214 38.7078V33.7912C47.565 31.6238 42.337 31.8112 38.1392 34.319C36.0346 35.5766 33.6262 36.2412 31.1748 36.2412H8.8312V40.4058L40.04 44.2814C40.8718 44.3848 41.719 44.437 42.5578 44.437H46.5998H52.9212H69.26C71.3814 44.437 73.4726 44.0248 75.4204 43.2466C75.4708 43.2264 75.522 43.2078 75.5722 43.1872C75.7034 43.1332 75.8328 43.0748 75.9628 43.0176C76.0614 42.974 76.1606 42.932 76.2584 42.8864C76.3462 42.8456 76.4326 42.8016 76.5198 42.7592C76.6582 42.6916 76.797 42.6246 76.934 42.553C76.9884 42.5246 77.042 42.4942 77.0962 42.4654C77.2618 42.3766 77.427 42.2864 77.5902 42.1918C78.3794 41.7344 79.1342 41.2128 79.843 40.6264L82.8356 38.15C82.8168 38.1166 82.7998 38.0822 82.7814 38.0484C82.7746 38.0358 82.768 38.0232 82.7612 38.0106C82.6992 37.896 82.64 37.7802 82.5832 37.6634C82.5746 37.6458 82.5662 37.6282 82.5578 37.6106C82.5032 37.4962 82.451 37.381 82.4012 37.2648C82.3932 37.246 82.3852 37.2274 82.3772 37.2086C82.3274 37.0902 82.2804 36.971 82.2358 36.8508C82.2296 36.834 82.2232 36.8174 82.217 36.8006C82.17 36.6712 82.1256 36.5408 82.0844 36.4096C82.082 36.4022 82.0794 36.3948 82.0772 36.3874C81.9518 35.9834 81.8532 35.571 81.785 35.1516C81.7392 35.1696 81.693 35.1872 81.647 35.2046C79.3294 36.0818 76.6804 35.5316 74.8978 33.8028L56.7574 16.2088L55.4736 17.4926L54.1898 18.7766L69.4828 34.5452L73.8312 39.0288C74.2158 39.4252 74.206 40.0582 73.8098 40.4428C73.6154 40.6312 73.3642 40.725 73.1136 40.725C72.8526 40.725 72.592 40.6234 72.3958 40.4212L68.342 36.2414H59.9216C58.7026 36.2414 57.4862 36.0794 56.3062 35.7598C55.773 35.6154 55.458 35.0662 55.6022 34.5332C55.7468 34.0002 56.2964 33.685 56.8288 33.8294C57.8386 34.1028 58.8792 34.2416 59.9216 34.2416H66.4022L52.0682 19.462L48.446 15.7272C47.039 14.2766 47.057 11.9338 48.486 10.505C49.9146 9.0758 52.2574 9.0582 53.708 10.465L57.443 14.0872C57.4432 14.0874 57.4436 14.088 57.4438 14.0882L76.2902 32.367C77.5186 33.5584 79.3434 33.9376 80.9386 33.334C81.192 33.238 81.4428 33.132 81.6912 33.0212C82.0252 28.2682 85.9962 24.5024 90.8328 24.5024C95.8876 24.5024 100 28.6148 100 33.6696C100 38.7244 95.8876 42.8366 90.8328 42.8366C88.1228 42.8366 85.6846 41.6536 84.0048 39.7778L81.1176 42.167C80.48 42.6948 79.8092 43.176 79.112 43.611L78.9168 56.37C78.9006 57.42 78.4396 58.3656 77.7194 59.0344C78.4398 59.7032 78.9008 60.6488 78.9168 61.6988L78.9966 66.9158C78.9966 66.916 78.9966 66.9162 78.9966 66.9162C78.9966 66.9162 78.9966 66.9164 78.9966 66.9166L79.39 92.6292H81.8434C81.7274 92.048 81.6656 91.4478 81.6656 90.833C81.6656 85.7782 85.778 81.6658 90.8326 81.6658C95.8876 81.6658 100 85.7782 100 90.833ZM49.8814 14.3348L52.7968 17.3406L55.3214 14.816L52.3156 11.9008C51.9836 11.5788 51.5504 11.418 51.1174 11.418C50.6756 11.418 50.234 11.5852 49.9002 11.919C49.239 12.5802 49.2308 13.6638 49.8814 14.3348ZM83.6658 33.6696C83.6658 33.8338 83.6734 33.9968 83.6844 34.1594C83.6874 34.2012 83.6904 34.243 83.694 34.2848C83.7076 34.4434 83.7244 34.6014 83.7484 34.7578C83.7508 34.7738 83.7542 34.7892 83.7568 34.805C83.7794 34.9468 83.8074 35.0874 83.8384 35.2272C83.8492 35.2754 83.86 35.3236 83.8718 35.3716C83.9072 35.5166 83.9458 35.6606 83.9902 35.8028C84.002 35.8404 84.0156 35.877 84.028 35.9144C84.0656 36.028 84.106 36.1404 84.1492 36.252C84.1688 36.3022 84.188 36.3524 84.2086 36.402C84.2638 36.5356 84.3226 36.6678 84.3862 36.798C84.4072 36.841 84.4298 36.883 84.4516 36.9256C84.5058 37.0312 84.5626 37.1356 84.6222 37.2388C84.645 37.2784 84.667 37.3186 84.6906 37.3576C84.7668 37.484 84.8476 37.608 84.932 37.7302C86.226 39.6048 88.388 40.8364 90.8332 40.8364C94.7852 40.8364 98.0004 37.6212 98.0004 33.6694C98.0004 29.7174 94.7852 26.5022 90.8332 26.5022C86.8812 26.5022 83.6658 29.7176 83.6658 33.6696ZM3.5438 39.7494L6.8314 40.1576V36.2414H3.7608C2.79 36.2414 2 37.0312 2 38.002C2 38.889 2.6636 39.6402 3.5438 39.7494ZM47.5998 46.4372V50.5546H51.9212V46.4372H47.5998ZM51.9212 98V52.5546H47.5998V63.6804C47.5998 64.767 47.489 65.858 47.2706 66.9228L42.3558 90.8706C41.9958 92.6252 42.4386 94.4276 43.5706 95.8158C44.7026 97.2038 46.3792 97.9998 48.1704 97.9998H51.9212V98ZM76.913 97.4492C77.2628 97.094 77.4512 96.624 77.4436 96.1254L77.012 67.9162H73.3802L72.9484 96.1254C72.9474 96.1878 72.9496 96.2496 72.9546 96.3108C72.9904 96.7396 73.173 97.1382 73.479 97.449C73.8288 97.8042 74.296 97.9998 74.7944 97.9998H75.5976C76.0962 98 76.5634 97.8044 76.913 97.4492ZM76.9814 65.9162L76.9174 61.7294C76.903 60.7948 76.1308 60.0344 75.1962 60.0344C74.2616 60.0344 73.4894 60.7946 73.4752 61.7292L73.4112 65.9162H76.9814ZM76.9174 56.3394L76.9394 54.9H73.4528L73.4748 56.3394C73.4892 57.274 74.2614 58.0344 75.196 58.0344C76.1306 58.0344 76.903 57.274 76.9174 56.3394ZM77.0242 44.7362C75.8346 45.284 74.595 45.7038 73.3166 45.9894L73.4222 52.9H76.97L77.0952 44.7042C77.08 44.7112 77.0648 44.7176 77.0496 44.7248C77.0412 44.7286 77.0326 44.7322 77.0242 44.7362ZM85.1272 98C84.7134 97.6698 84.3284 97.3052 83.9774 96.9094C83.9644 96.8948 83.9518 96.8796 83.9388 96.865C83.8416 96.754 83.747 96.6406 83.655 96.525C83.6326 96.4968 83.6102 96.4684 83.5882 96.4398C83.5018 96.3286 83.4182 96.2154 83.3372 96.1002C83.3196 96.0752 83.3014 96.0506 83.284 96.0254C83.0856 95.7378 82.9032 95.4386 82.7382 95.1288C82.7332 95.1192 82.7284 95.1096 82.7234 95.1C82.6456 94.953 82.5724 94.8032 82.5026 94.6516C82.499 94.644 82.495 94.6368 82.4914 94.629H79.4212L79.4432 96.0816L79.4434 96.0946C79.4452 96.2104 79.44 96.3252 79.4318 96.4392C79.43 96.4656 79.4278 96.4918 79.4254 96.5182C79.4148 96.6312 79.4008 96.7434 79.3806 96.854C79.379 96.8622 79.3768 96.8702 79.3754 96.8784C79.3556 96.9826 79.3308 97.0854 79.3026 97.187C79.296 97.211 79.2896 97.235 79.2824 97.2586C79.2506 97.3652 79.215 97.4706 79.174 97.5738C79.1684 97.588 79.1618 97.6016 79.156 97.6156C79.1182 97.7076 79.0764 97.7978 79.0314 97.8866C79.0202 97.9088 79.0092 97.9312 78.9976 97.9532C78.9894 97.9684 78.9824 97.9842 78.9742 97.9994H85.1272V98ZM98 90.833C98 86.881 94.7848 83.6658 90.8328 83.6658C86.8808 83.6658 83.6658 86.881 83.6658 90.833C83.6658 91.6862 83.8162 92.5048 84.091 93.2644C84.094 93.2722 84.0984 93.279 84.1012 93.287C84.165 93.4622 84.2354 93.6338 84.312 93.8018C84.3128 93.8036 84.3136 93.8052 84.3144 93.8068C84.466 94.1388 84.642 94.4554 84.839 94.7558C84.8432 94.7622 84.8472 94.7686 84.8514 94.775C84.9478 94.9208 85.0494 95.0624 85.1556 95.2C85.1634 95.21 85.1712 95.2198 85.179 95.2298C86.3934 96.7864 88.2214 97.8014 90.2288 97.9726C90.261 97.9754 90.2932 97.9778 90.3254 97.98C90.4934 97.992 90.6624 98 90.8326 98C94.7848 98 98 94.7848 98 90.833ZM56.397 87.764H57.0666C57.619 87.764 58.0666 87.3162 58.0666 86.764C58.0666 86.2118 57.619 85.764 57.0666 85.764H56.397C55.8446 85.764 55.397 86.2118 55.397 86.764C55.397 87.3162 55.8448 87.764 56.397 87.764ZM52.9212 40.2894C52.3688 40.2894 51.9212 40.7372 51.9212 41.2894V42.3784C51.9212 42.9306 52.3688 43.3784 52.9212 43.3784C53.4736 43.3784 53.9212 42.9306 53.9212 42.3784V41.2894C53.9212 40.7372 53.4736 40.2894 52.9212 40.2894ZM23.1334 98H21.8C21.2476 98 20.8 98.4478 20.8 99C20.8 99.5522 21.2476 100 21.8 100H23.1334C23.6858 100 24.1334 99.5522 24.1334 99C24.1334 98.4478 23.6858 98 23.1334 98Z" fill="#3F3F3F"/>
</g>
<defs>
<clipPath id="clip0_629_1694">
<rect width="100" height="100" fill="white"/>
</clipPath>
</defs>
</svg>
