<svg width="100" height="100" viewBox="0 0 100 100" fill="none" xmlns="http://www.w3.org/2000/svg">
<path d="M96.7758 13.7676H3.22461V84.5474H96.7758V13.7676Z" fill="white"/>
<path d="M3.22461 84.5479V95.2093C3.22461 97.3031 4.92201 99.0005 7.01581 99.0005H92.9846C95.0784 99.0005 96.7758 97.3031 96.7758 95.2093V84.5479H3.22461Z" fill="#DACEB0"/>
<path d="M96.7758 77.4336H3.22461V84.5472H96.7758V77.4336Z" fill="#EDEBE5"/>
<path d="M19.9599 94.8123C21.628 94.8123 22.9803 93.46 22.9803 91.7919C22.9803 90.1238 21.628 88.7715 19.9599 88.7715C18.2917 88.7715 16.9395 90.1238 16.9395 91.7919C16.9395 93.46 18.2917 94.8123 19.9599 94.8123Z" fill="#EDEBE5"/>
<path d="M92.9846 1H7.01581C4.92201 1 3.22461 2.6974 3.22461 4.7912V13.7676H96.7758V4.7912C96.7758 2.6974 95.0784 1 92.9846 1Z" fill="#EDEBE5"/>
<path d="M12.0975 9.5924C13.3174 9.5924 14.3063 8.60349 14.3063 7.3836C14.3063 6.16372 13.3174 5.1748 12.0975 5.1748C10.8776 5.1748 9.88867 6.16372 9.88867 7.3836C9.88867 8.60349 10.8776 9.5924 12.0975 9.5924Z" fill="#ECF4F7"/>
<path d="M20.8309 9.5924C22.0508 9.5924 23.0397 8.60349 23.0397 7.3836C23.0397 6.16372 22.0508 5.1748 20.8309 5.1748C19.611 5.1748 18.6221 6.16372 18.6221 7.3836C18.6221 8.60349 19.611 9.5924 20.8309 9.5924Z" fill="#ECF4F7"/>
<path d="M29.5643 9.5924C30.7842 9.5924 31.7731 8.60349 31.7731 7.3836C31.7731 6.16372 30.7842 5.1748 29.5643 5.1748C28.3444 5.1748 27.3555 6.16372 27.3555 7.3836C27.3555 8.60349 28.3444 9.5924 29.5643 9.5924Z" fill="#ECF4F7"/>
<path d="M32.7128 52.6514H24.3484C23.3772 52.6514 22.5898 53.4388 22.5898 54.41C22.5898 55.376 23.369 56.1612 24.335 56.1684L30.1614 56.1894C31.0196 56.1926 31.8736 56.277 32.7128 56.4388V52.6514Z" fill="#F3EFE7"/>
<path d="M50 40.2569C55.5191 40.2569 59.9932 35.7828 59.9932 30.2637C59.9932 24.7446 55.5191 20.2705 50 20.2705C44.4809 20.2705 40.0068 24.7446 40.0068 30.2637C40.0068 35.7828 44.4809 40.2569 50 40.2569Z" fill="#F3EFE7"/>
<path d="M67.1104 77.4347H32.8904C30.1792 77.4347 27.9814 75.2369 27.9814 72.5257V71.8211C27.9814 69.1099 30.1792 66.9121 32.8904 66.9121H67.1104C69.8216 66.9121 72.0194 69.1099 72.0194 71.8211V72.5257C72.0194 75.2369 69.8216 77.4347 67.1104 77.4347Z" fill="#DACEB0"/>
<path d="M56.3223 66.9121H43.6777V77.4347H56.3223V66.9121Z" fill="#F3EFE7"/>
<path d="M67.2871 52.6514H75.6515C76.6227 52.6514 77.4101 53.4388 77.4101 54.41C77.4101 55.376 76.6309 56.1612 75.6649 56.1684L69.8385 56.1894C68.9803 56.1926 68.1263 56.277 67.2871 56.4388V52.6514Z" fill="#F3EFE7"/>
<path d="M12.0978 4.175C10.3284 4.175 8.88901 5.6144 8.88901 7.3836C8.88901 9.153 10.3284 10.5924 12.0978 10.5924C13.8672 10.5924 15.3066 9.153 15.3066 7.3836C15.3066 5.6146 13.8672 4.175 12.0978 4.175ZM12.0978 8.5926C11.4312 8.5926 10.889 8.0504 10.889 7.3838C10.889 6.7172 11.4312 6.1752 12.0978 6.1752C12.7644 6.1752 13.3066 6.7174 13.3066 7.3838C13.3066 8.0502 12.7644 8.5926 12.0978 8.5926ZM20.8312 4.175C19.0618 4.175 17.6224 5.6144 17.6224 7.3836C17.6224 9.153 19.0618 10.5924 20.8312 10.5924C22.6006 10.5924 24.04 9.153 24.04 7.3836C24.04 5.6146 22.6006 4.175 20.8312 4.175ZM20.8312 8.5926C20.1646 8.5926 19.6224 8.0504 19.6224 7.3838C19.6224 6.7172 20.1646 6.1752 20.8312 6.1752C21.4978 6.1752 22.04 6.7174 22.04 7.3838C22.04 8.0502 21.4978 8.5926 20.8312 8.5926ZM29.5646 4.175C27.7954 4.175 26.356 5.6144 26.356 7.3836C26.356 9.153 27.7954 10.5924 29.5646 10.5924C31.334 10.5924 32.7734 9.153 32.7734 7.3836C32.7734 5.6146 31.334 4.175 29.5646 4.175ZM29.5646 8.5926C28.8982 8.5926 28.356 8.0504 28.356 7.3838C28.356 6.7172 28.8982 6.1752 29.5646 6.1752C30.2312 6.1752 30.7734 6.7174 30.7734 7.3838C30.7734 8.0502 30.2312 8.5926 29.5646 8.5926ZM2.22461 44.1596V43.0622C2.22461 42.51 2.67221 42.0622 3.22461 42.0622C3.77701 42.0622 4.22461 42.51 4.22461 43.0622V44.1596C4.22461 44.7118 3.77701 45.1596 3.22461 45.1596C2.67221 45.1596 2.22461 44.7118 2.22461 44.1596ZM92.9846 0H7.01581C4.37401 0 2.22461 2.1494 2.22461 4.7912V39.507C2.22461 40.0592 2.67221 40.507 3.22461 40.507C3.77701 40.507 4.22461 40.0592 4.22461 39.507V14.7676H95.7758V83.5474H4.22461V48.9112C4.22461 48.359 3.77701 47.9112 3.22461 47.9112C2.67221 47.9112 2.22461 48.359 2.22461 48.9112V95.2088C2.22461 97.8506 4.37401 100 7.01581 100H92.9846C95.6264 100 97.7758 97.8506 97.7758 95.2088V4.7912C97.7758 2.1494 95.6264 0 92.9846 0ZM95.7758 95.2088C95.7758 96.7478 94.5236 98 92.9846 98H7.01581C5.47681 98 4.22461 96.7478 4.22461 95.2088V85.5474H95.7758V95.2088ZM95.7758 12.7676H4.22461V4.7912C4.22461 3.2522 5.47681 2 7.01581 2H92.9846C94.5236 2 95.7758 3.2522 95.7758 4.7912V12.7676ZM21.5964 54.218C21.5436 54.987 21.8024 55.721 22.3248 56.2846C22.84 56.8404 23.57 57.1624 24.3316 57.1682L30.1578 57.1892C30.9478 57.1922 31.7298 57.2676 32.4982 57.4142C32.5064 57.416 32.5144 57.4178 32.5226 57.4194C33.2726 57.564 34.0096 57.7756 34.7284 58.0552L40.2238 60.1922V64.265C40.2238 64.8172 40.6714 65.265 41.2238 65.265C41.7762 65.265 42.2238 64.8172 42.2238 64.265V59.802V59.5084V48.3702C42.2238 47.818 41.7762 47.3702 41.2238 47.3702C40.6714 47.3702 40.2238 47.818 40.2238 48.3702V58.0464L35.4534 56.1912C34.8826 55.9692 34.3014 55.787 33.713 55.6386V53.6514H36.0894C37.3876 53.6514 38.4436 52.5954 38.4436 51.2972V46.908C38.4436 43.7916 40.979 41.2564 44.0952 41.2564H55.9054C59.0216 41.2564 61.5568 43.7916 61.5568 46.908V51.2972C61.5568 52.5954 62.6128 53.6514 63.911 53.6514H66.2874V55.6386C65.699 55.7872 65.1176 55.9694 64.547 56.1912L59.7768 58.0462V48.37C59.7768 47.8178 59.3292 47.37 58.7768 47.37C58.2244 47.37 57.7768 47.8178 57.7768 48.37V59.5056C57.7768 59.5064 57.7766 59.5072 57.7766 59.5082V64.2652C57.7766 64.8174 58.2242 65.2652 58.7766 65.2652C59.329 65.2652 59.7766 64.8174 59.7766 64.2652V60.1924L65.272 58.0554C65.9908 57.7758 66.7278 57.5642 67.4776 57.4196C67.486 57.418 67.494 57.4162 67.502 57.4144C68.2704 57.2678 69.0522 57.1922 69.8422 57.1894L75.6728 57.1684C76.4304 57.1626 77.1602 56.8404 77.6754 56.2848C78.1976 55.7212 78.4564 54.9872 78.4038 54.2182C78.3056 52.779 77.0704 51.6516 75.592 51.6516H75.0822C75.221 51.2974 75.2998 50.9136 75.2998 50.5108C75.2998 48.779 73.891 47.3702 72.1594 47.3702C70.4278 47.3702 69.019 48.779 69.019 50.5108C69.019 50.9134 69.098 51.2974 69.2366 51.6516H63.911C63.7156 51.6516 63.5568 51.4928 63.5568 51.2974V46.908C63.5568 42.8204 60.3348 39.471 56.2972 39.2664C59.134 37.2764 60.9936 33.9838 60.9936 30.2632C60.9936 24.2014 56.0622 19.27 50.0004 19.27C43.9386 19.27 39.0072 24.2016 39.0072 30.2632C39.0072 33.9838 40.8668 37.2762 43.7036 39.2664C39.6658 39.471 36.4438 42.8204 36.4438 46.908V51.2972C36.4438 51.4926 36.2848 51.6514 36.0896 51.6514H30.764C30.9028 51.2972 30.9816 50.9134 30.9816 50.5106C30.9816 48.7788 29.5728 47.37 27.8412 47.37C26.1096 47.37 24.7008 48.7788 24.7008 50.5106C24.7008 50.9132 24.7798 51.2972 24.9184 51.6514H24.4086C22.9298 51.6514 21.6948 52.779 21.5964 54.218ZM72.1594 49.3702C72.7884 49.3702 73.2998 49.8818 73.2998 50.5108C73.2998 51.1398 72.7882 51.6514 72.1594 51.6514C71.5306 51.6514 71.019 51.1398 71.019 50.5108C71.019 49.8818 71.5304 49.3702 72.1594 49.3702ZM68.2874 53.6514H75.592C76.0156 53.6514 76.3818 53.9668 76.4084 54.3546C76.423 54.5678 76.352 54.7704 76.2084 54.9254C76.0646 55.0806 75.869 55.167 75.6618 55.1686L69.835 55.1896C69.3156 55.1916 68.7996 55.2236 68.2874 55.2794V53.6514ZM41.007 30.2632C41.007 25.3044 45.0414 21.27 50.0002 21.27C54.959 21.27 58.9934 25.3044 58.9934 30.2632C58.9934 35.222 54.959 39.2564 50.0002 39.2564C45.0414 39.2564 41.007 35.2222 41.007 30.2632ZM27.8408 49.3702C28.4698 49.3702 28.9812 49.8818 28.9812 50.5108C28.9812 51.1398 28.4696 51.6514 27.8408 51.6514C27.212 51.6514 26.7004 51.1398 26.7004 50.5108C26.7004 49.8818 27.212 49.3702 27.8408 49.3702ZM31.7128 53.6514V55.2792C31.2004 55.2234 30.6844 55.1914 30.165 55.1894L24.3428 55.1684C24.1312 55.1668 23.9356 55.0804 23.7918 54.9252C23.6482 54.7704 23.5772 54.5676 23.5918 54.3544C23.6184 53.9668 23.9846 53.6514 24.4082 53.6514H31.7128ZM87.2104 91.7916C87.2104 91.2394 87.658 90.7916 88.2104 90.7916H89.4644C90.0168 90.7916 90.4644 91.2394 90.4644 91.7916C90.4644 92.3438 90.0168 92.7916 89.4644 92.7916H88.2104C87.658 92.7916 87.2104 92.3438 87.2104 91.7916ZM10.5362 92.7916H16.0708C16.517 94.5254 18.089 95.8122 19.9602 95.8122C21.8314 95.8122 23.4034 94.5254 23.8498 92.7916H84.3166C84.869 92.7916 85.3166 92.3438 85.3166 91.7916C85.3166 91.2394 84.869 90.7916 84.3166 90.7916H23.8498C23.4036 89.0578 21.8314 87.7712 19.9602 87.7712C18.0892 87.7712 16.5172 89.0578 16.0708 90.7916H10.5362C9.98381 90.7916 9.53621 91.2394 9.53621 91.7916C9.53621 92.3438 9.98381 92.7916 10.5362 92.7916ZM19.9602 89.771C21.0742 89.771 21.9808 90.6774 21.9808 91.7914C21.9808 92.9054 21.0742 93.812 19.9602 93.812C18.8462 93.812 17.9398 92.9056 17.9398 91.7914C17.9398 90.6772 18.846 89.771 19.9602 89.771ZM13.9366 77.4338C13.9366 77.986 14.3842 78.4338 14.9366 78.4338H32.8904H67.1104H85.0642C85.6166 78.4338 86.0642 77.986 86.0642 77.4338C86.0642 76.8816 85.6166 76.4338 85.0642 76.4338H71.5362C72.4582 75.3912 73.0194 74.0226 73.0194 72.5248V71.8202C73.0194 68.562 70.3686 65.9112 67.1104 65.9112H32.8904C29.6322 65.9112 26.9814 68.562 26.9814 71.8202V72.5248C26.9814 74.0226 27.5426 75.3912 28.4646 76.4338H14.9366C14.3842 76.4338 13.9366 76.8816 13.9366 77.4338ZM56.3224 75.5042C56.8748 75.5042 57.3224 75.0564 57.3224 74.5042V67.9114H67.11C69.2654 67.9114 71.019 69.665 71.019 71.8204V72.525C71.019 74.6804 69.2654 76.434 67.11 76.434H44.678V73.1726H55.3226V74.5042C55.3224 75.0564 55.7702 75.5042 56.3224 75.5042ZM28.9812 71.8202C28.9812 69.6648 30.7348 67.9112 32.8902 67.9112H55.3224V71.1726H44.6778V69.7632C44.6778 69.211 44.2302 68.7632 43.6778 68.7632C43.1254 68.7632 42.6778 69.211 42.6778 69.7632V76.434H32.8902C30.7348 76.434 28.9812 74.6804 28.9812 72.525V71.8202ZM9.30021 78.4338C8.74781 78.4338 8.30021 77.986 8.30021 77.4338C8.30021 76.8816 8.74781 76.4338 9.30021 76.4338H10.3448C10.8972 76.4338 11.3448 76.8816 11.3448 77.4338C11.3448 77.986 10.8972 78.4338 10.3448 78.4338H9.30021ZM89.6556 78.4338C89.1032 78.4338 88.6556 77.986 88.6556 77.4338C88.6556 76.8816 89.1032 76.4338 89.6556 76.4338H90.7002C91.2526 76.4338 91.7002 76.8816 91.7002 77.4338C91.7002 77.986 91.2526 78.4338 90.7002 78.4338H89.6556ZM28.697 34.4152V35.6102H29.892C30.4444 35.6102 30.892 36.058 30.892 36.6102C30.892 37.1624 30.4444 37.6102 29.892 37.6102H28.697V38.8052C28.697 39.3574 28.2494 39.8052 27.697 39.8052C27.1446 39.8052 26.697 39.3574 26.697 38.8052V37.6102H25.502C24.9496 37.6102 24.502 37.1624 24.502 36.6102C24.502 36.058 24.9496 35.6102 25.502 35.6102H26.697V34.4152C26.697 33.863 27.1446 33.4152 27.697 33.4152C28.2494 33.4152 28.697 33.863 28.697 34.4152ZM73.3034 34.4152V35.6102H74.4984C75.0508 35.6102 75.4984 36.058 75.4984 36.6102C75.4984 37.1624 75.0508 37.6102 74.4984 37.6102H73.3034V38.8052C73.3034 39.3574 72.8558 39.8052 72.3034 39.8052C71.751 39.8052 71.3034 39.3574 71.3034 38.8052V37.6102H70.1084C69.556 37.6102 69.1084 37.1624 69.1084 36.6102C69.1084 36.058 69.556 35.6102 70.1084 35.6102H71.3034V34.4152C71.3034 33.863 71.751 33.4152 72.3034 33.4152C72.8558 33.4152 73.3034 33.863 73.3034 34.4152Z" fill="#3F3F3F"/>
</svg>
